<svg height="512" viewBox="0 0 512 512" width="512" xmlns="http://www.w3.org/2000/svg" xmlns:xlink="http://www.w3.org/1999/xlink"><linearGradient id="a" gradientUnits="userSpaceOnUse" x1="8.619" x2="482.223" y1="499.381" y2="25.777" data-name="New Gradient Swatch 1"><stop offset="0" stop-color="#003f8a"/><stop offset=".518" stop-color="#00d7df"/><stop offset="1" stop-color="#006df0"/></linearGradient><linearGradient id="b" x1="-109.381" x2="364.223" xlink:href="#a" y1="381.38" y2="-92.223"/><linearGradient id="c" x1="82.619" x2="556.223" xlink:href="#a" y1="573.381" y2="99.777"/><g><path d="m496 56h-480a8 8 0 0 0 -8 8v48a8 8 0 0 0 8 8v328a8 8 0 0 0 8 8h192a7.99 7.99 0 0 0 7.78-6.15l32.35-135.9 32.08 135.89a8.01 8.01 0 0 0 7.79 6.16h192a8 8 0 0 0 8-8v-328a8 8 0 0 0 8-8v-48a8 8 0 0 0 -8-8zm-16 384h-177.67l-38.38-162.57a8 8 0 0 0 -7.78-6.16h-.01a8 8 0 0 0 -7.78 6.15l-38.7 162.58h-177.68v-320h163.02a68.053 68.053 0 0 0 -2.61 50.53c14.08 42.24-5.29 63-6.07 63.81a8 8 0 0 0 11.32 11.32c1.12-1.13 27.29-28.1 9.93-80.19-5.15-15.46-3.3-30.73 5.45-45.47h92.96c12.43 16.37 14.67 34.12 6.65 52.85-11.59 27.05-14.3 47.82-8.04 61.75 4.37 9.74 11.48 12.53 12.86 12.99l5.06-15.18a2.332 2.332 0 0 1 .36.13c-4.28-1.96-11.82-15.39 4.46-53.39 8.79-20.5 7.95-40.67-2.27-59.15h154.92zm8-336h-174.52a114.388 114.388 0 0 0 -29.9-23.16 8.005 8.005 0 1 0 -7.16 14.32 90.59 90.59 0 0 1 13.51 8.84h-64.38a82.709 82.709 0 0 1 10.9-9.35 8 8 0 0 0 -8.89-13.31 103.653 103.653 0 0 0 -23.09 22.66h-180.47v-32h464z" fill="url(#a)"/><path d="m80 136h-32a8 8 0 0 0 -8 8v128a8 8 0 0 0 8 8h32a8 8 0 0 0 8-8v-128a8 8 0 0 0 -8-8zm-8 128h-16v-112h16z" fill="url(#b)"/><path d="m432 280h32a8 8 0 0 0 8-8v-128a8 8 0 0 0 -8-8h-32a8 8 0 0 0 -8 8v128a8 8 0 0 0 8 8zm8-128h16v112h-16z" fill="url(#c)"/></g></svg>